<svg xmlns="http://www.w3.org/2000/svg" xmlns:xlink="http://www.w3.org/1999/xlink" id="Layer_2_00000031897970383332030660000013399336885612973247_" x="0px" y="0px" viewBox="0 0 448.9 38" style="enable-background:new 0 0 448.9 38;" xml:space="preserve"><style type="text/css">	.st0{fill:#2B3240;}	.st1{fill:#EF3415;stroke:#EF3415;stroke-width:2;stroke-miterlimit:10;}</style><g id="Layer_1-2">	<g>		<g>			<path class="st0" d="M14,36.3L0,1.6h4.9l11.7,30l11.7-30h5l-14,34.8L14,36.3L14,36.3z"></path>			<path class="st0" d="M39.2,36.3V1.6H62v3.9H43.5v11.2h18.1v3.9H43.5v12H62v3.8C62,36.3,39.2,36.3,39.2,36.3z"></path>			<path class="st0" d="M94.8,36.3L74.5,8.6v27.7h-4.3V1.6h4.4l20,27.2V1.6h4.3v34.8L94.8,36.3L94.8,36.3z"></path>			<path class="st0" d="M117,36.3V5.4h-11V1.6h26.4v3.9h-11.1v30.9L117,36.3L117,36.3z"></path>			<path class="st0" d="M139.4,22.8V1.6h4.4v21.2c0,6.4,3.4,10.4,9.8,10.4s9.9-4,9.9-10.4V1.6h4.4v21.2c0,8.6-4.8,14.2-14.2,14.2    S139.4,31.4,139.4,22.8L139.4,22.8z"></path>			<path class="st0" d="M197.4,36.3l-8.8-13.8h-7v13.8h-4.3V1.6h14c6.4,0,10.9,4.1,10.9,10.5s-4.3,9.7-9.1,10.1l9.4,14.2L197.4,36.3    L197.4,36.3z M197.7,12.1c0-4-2.9-6.6-7-6.6h-9.1v13.3h9.1C194.8,18.7,197.7,16,197.7,12.1z"></path>			<path class="st0" d="M210.3,36.3V1.6H233v3.9h-18.4v11.2h18.1v3.9h-18.1v12H233v3.8C233,36.3,210.3,36.3,210.3,36.3z"></path>		</g>		<g>			<path class="st1" d="M249.9,19c0-10.8,8-18,17.9-18c6.2,0,10.5,2.7,13.5,6.5l-3.4,2.2c-2.2-2.8-5.9-4.8-10.1-4.8    c-7.6,0-13.4,5.8-13.4,14.1s5.8,14.1,13.4,14.1c7.1,0,10.8-5.1,11.7-10.8h-14.3v-3.9h19c0,10.9-5.9,18.6-16.7,18.6    C257.8,37,249.9,29.8,249.9,19L249.9,19z"></path>			<path class="st1" d="M291.3,36.3V1.6h4.3v30.9h16.1v3.8L291.3,36.3L291.3,36.3z"></path>			<path class="st1" d="M315.7,19c0-10.3,7-18,17.2-18s17.3,7.7,17.3,18s-7,18-17.3,18S315.7,29.3,315.7,19z M345.8,19    c0-8.1-5.1-14.1-12.8-14.1s-12.8,6-12.8,14.1s5,14.1,12.8,14.1S345.8,27.1,345.8,19z"></path>			<path class="st1" d="M358.3,36.3V1.6h15.5c6,0,9.8,3.7,9.8,8.9c0,4.4-2.9,7.3-6.1,8c3.7,0.6,6.8,4.4,6.8,8.6    c0,5.6-3.7,9.4-10.1,9.4L358.3,36.3L358.3,36.3z M379,11.1c0-3.1-2.1-5.6-6-5.6h-10.4v11.2H373C377,16.6,379,14.2,379,11.1z     M379.7,26.5c0-3.2-2.2-6-6.4-6h-10.7v12h10.7C377.3,32.5,379.7,30.2,379.7,26.5z"></path>			<path class="st1" d="M427.4,36.3V1.6h4.3v30.9h16.2v3.8L427.4,36.3L427.4,36.3z"></path>			<g>				<polygon class="st1" points="393.5,36.3 388.8,36.3 402.8,1.6 407.2,1.6     "></polygon>				<polygon class="st1" points="417.1,36.3 422.2,36.3 408.1,1.6 403.8,1.6     "></polygon>			</g>		</g>	</g></g></svg>